<?xml version="1.0" encoding="UTF-8"?>
<svg width="60%" height="100%" viewBox="0 0 470 200" preserveAspectRatio="xMinYMin meet" xmlns="http://www.w3.org/2000/svg">
<polyline points="20,180 20,180.0 30,27.30174102490099 40,27.294347975452098 50,25.22963076790066 60,47.66260672766873 70,55.488108190306946 80,52.76815438934254 90,48.39419887622765 100,47.889165574433264 110,55.48808812775758 120,49.2025603700136 130,44.60293503185386 140,44.60279208618948 150,55.488020416653384 160,41.62248908965648 170,46.232074229677266 180,41.48862674451311 190,29.82111823446556 200,39.58834093782326 210,41.48866812352122 220,42.517815465485796 230,40.02196284898608 240,27.930600381508185 250,22.343047463007565 260,34.96723237099869 270,32.690665927110956 280,32.589084223930286 290,24.118772424013343 300,20.0 310,27.48875784073428 320,29.82199597100123 330,23.055461068262417 340,29.821494407266556 350,30.939359596527083 360,41.488584111595685 370,42.39933482617511 380,41.48856028731828 390,41.488358407915086 400,34.51538864935563 410,30.068987270406467 420,30.068987270406467 430,24.66810132703418 440,29.820488771978546 450,27.30174102490099 460,180.0 460,180" style="fill:lightgray;stroke:red;stroke-width:2" />
<line x1="20" y1="180" x2="460" y2="180" style="stroke:red;stroke-width:2" />
</svg>
